<svg width="300" height="200" viewBox="0 0 300 200" fill="none" xmlns="http://www.w3.org/2000/svg">
<path d="M252.292 157.953C247.954 157.953 244.012 158.474 241.094 159.324V166.585C244.012 167.435 247.954 167.956 252.292 167.956C257.258 167.956 261.703 167.273 264.689 166.196V159.713C261.703 158.636 257.258 157.953 252.292 157.953Z" fill="#A52B00"/>
<path d="M269.161 163.852L268.652 162.798C268.655 162.758 268.657 162.718 268.657 162.678C268.657 161.484 267.415 160.383 265.326 159.502V165.854C266.301 165.443 267.092 164.984 267.657 164.49C267.491 165.16 266.921 166.514 266.467 167.466C265.721 168.828 265.451 170.014 265.486 170.073C265.508 170.11 265.762 169.717 266.138 169.081C267.011 167.836 268.666 165.46 268.997 164.855C269.372 164.169 269.161 163.852 269.161 163.852Z" fill="#A52B00"/>
<path d="M236.251 162.748C236.251 162.978 236.298 163.204 236.387 163.426L236.082 163.969C236.082 163.969 235.838 164.285 236.268 164.953C236.647 165.542 238.545 167.847 239.547 169.054C239.977 169.672 240.269 170.054 240.294 170.017C240.335 169.958 240.027 168.797 239.172 167.471C238.774 166.759 238.297 165.816 238.011 165.119C238.81 165.625 239.854 166.083 241.094 166.477V159.018C238.105 159.968 236.251 161.288 236.251 162.748Z" fill="#A52B00"/>
<path d="M251.746 146.902L250.752 148.562C250.59 148.576 250.429 148.59 250.267 148.604L248.976 147.171C248.854 147.019 248.658 146.955 248.472 146.998C248.286 147.042 248.136 147.19 248.07 147.359L247.418 149.206C247.259 149.247 247.099 149.288 246.97 149.354L245.43 148.187C245.286 148.091 245.066 148.056 244.909 148.124C244.728 148.221 244.605 148.367 244.568 148.56L244.25 150.514C244.12 150.579 243.993 150.672 243.836 150.74L242.139 149.939C241.968 149.846 241.752 149.864 241.6 149.986C241.446 150.081 241.355 150.279 241.344 150.47L241.409 152.444C241.308 152.534 241.183 152.654 241.055 152.746L239.227 152.309C239.031 152.245 238.848 152.316 238.698 152.464C238.573 152.584 238.511 152.806 238.554 152.992L238.993 154.907C238.895 155.024 238.797 155.141 238.701 155.285L236.795 155.207C236.605 155.197 236.423 155.294 236.33 155.465C236.236 155.636 236.201 155.856 236.298 156.037L237.078 157.814C236.982 157.958 236.913 158.099 236.844 158.241L235.001 158.565C234.785 158.584 234.636 158.732 234.569 158.901C234.505 159.096 234.524 159.312 234.618 159.466L235.733 161.05C235.709 161.08 235.711 161.106 235.714 161.133L232.586 164.445C232.586 164.445 232.13 164.81 232.804 165.7C233.413 166.461 236.556 169.522 238.216 171.14C238.911 171.947 239.389 172.447 239.44 172.416C239.514 172.328 239.113 170.844 237.741 169.12C236.682 167.558 235.306 165.156 235.608 164.886C235.608 164.886 235.974 164.42 236.731 164.082C236.702 164.058 236.702 164.058 236.731 164.082C236.731 164.082 252.304 171.263 266.739 164.196C268.393 163.889 269.393 164.778 269.393 164.778C269.737 164.992 268.841 167.457 268.116 169.093C267.112 170.944 266.968 172.394 267.053 172.441C267.109 172.463 267.468 171.916 267.987 171.03C269.27 169.264 271.66 165.881 272.103 165.056C272.617 164.116 272.104 163.835 272.104 163.835L268.771 161.387C268.735 161.282 268.699 161.177 268.687 161.042L269.768 159.456C269.891 159.309 269.899 159.092 269.829 158.908C269.759 158.724 269.612 158.602 269.419 158.564L267.547 158.24C267.481 158.11 267.413 157.953 267.347 157.823L268.112 156.021C268.205 155.85 268.186 155.634 268.062 155.455C267.967 155.301 267.797 155.207 267.608 155.224L265.715 155.281C265.622 155.153 265.503 155.028 265.41 154.901L265.84 152.992C265.877 152.799 265.831 152.586 265.712 152.46C265.563 152.311 265.368 152.246 265.182 152.29L263.35 152.748C263.233 152.65 263.116 152.552 262.997 152.427L263.042 150.47C263.053 150.279 262.956 150.098 262.809 149.975C262.636 149.855 262.445 149.844 262.264 149.941L260.571 150.74C260.429 150.671 260.285 150.576 260.144 150.507L259.839 148.58C259.821 148.365 259.672 148.215 259.503 148.149C259.332 148.055 259.117 148.074 258.965 148.196L257.437 149.333C257.298 149.291 257.158 149.249 256.992 149.209L256.343 147.367C256.273 147.184 256.124 147.034 255.931 146.997C255.738 146.959 255.554 147.03 255.404 147.178L254.12 148.62C253.983 148.605 253.817 148.565 253.653 148.552L252.668 146.902C252.571 146.721 252.4 146.628 252.209 146.617C252.018 146.607 251.839 146.731 251.746 146.902Z" fill="url(#paint0_linear_4_258)"/>
<path d="M247.032 168.455C246.972 168.404 246.941 168.374 246.941 168.374L252.041 167.956C247.881 162.467 244.548 166.84 244.193 167.329V168.455H247.032Z" fill="black"/>
<path d="M257.652 168.396C257.711 168.345 257.743 168.315 257.743 168.315L252.841 167.956C257.003 162.242 260.136 166.781 260.491 167.269V168.396H257.652Z" fill="black"/>
<path d="M265.486 162.946C265.486 162.946 264.931 165.165 261.46 167.498L260.495 167.727C260.495 167.727 257.349 161.99 252.893 168.454C252.893 168.454 254.28 167.651 257.999 168.636C257.999 168.636 256.288 171.256 252.845 171.169C252.845 171.169 256.144 175.138 261.174 169.41C261.174 169.41 266.49 167.354 266.92 162.946L265.486 162.946Z" fill="url(#paint1_linear_4_258)"/>
<path d="M255.157 160.103C255.157 160.103 256.713 158.399 258.269 160.103C258.269 160.103 259.492 162.375 258.269 163.51C258.269 163.51 256.268 165.101 255.157 163.51C255.157 163.51 253.823 162.261 255.157 160.103Z" fill="black"/>
<path d="M256.958 160.735C256.958 161.398 256.567 161.936 256.085 161.936C255.603 161.936 255.212 161.398 255.212 160.735C255.212 160.071 255.603 159.533 256.085 159.533C256.567 159.533 256.958 160.071 256.958 160.735Z" fill="white"/>
<path d="M248.211 159.637C248.211 159.637 250.881 158.455 251.609 161.093C251.609 161.093 252.372 164.168 249.417 164.342C249.417 164.342 245.649 163.616 248.211 159.637Z" fill="black"/>
<path d="M249.552 160.778C249.552 161.462 249.149 162.017 248.651 162.017C248.154 162.017 247.751 161.462 247.751 160.778C247.751 160.094 248.154 159.539 248.651 159.539C249.149 159.539 249.552 160.094 249.552 160.778Z" fill="white"/>
<path d="M244.205 169.768C249.08 176.021 251.389 171 251.389 171C248.652 170.692 246.711 168.87 246.711 168.87C249.995 168.451 251.894 168.417 251.894 168.417C247.498 162.618 243.931 167.87 243.931 167.87C243.041 167.545 242.126 166.304 241.451 165.158L238.722 164.354C241.861 169.691 244.205 169.768 244.205 169.768Z" fill="url(#paint2_linear_4_258)"/>
<path d="M68.826 81.5076L98.0334 141.979H113.864L142.908 81.4889H144.054V156H166V44H141.456L106.481 116.7H105.683L70.7077 44H46V156H67.6806V81.5076H68.826Z" fill="url(#paint3_linear_4_258)"/>
<path d="M219 67C225.075 67 230 62.0751 230 56C230 49.9249 225.075 45 219 45C212.925 45 208 49.9249 208 56C208 62.0751 212.925 67 219 67Z" fill="url(#paint4_linear_4_258)"/>
<path d="M186 80C186 81.5913 186.685 83.1174 187.904 84.2426C189.123 85.3679 190.776 86 192.5 86H213V133.443L198.427 117.908C197.86 117.304 197.187 116.824 196.446 116.496C195.705 116.169 194.911 116 194.109 116C193.307 116 192.513 116.169 191.772 116.496C191.031 116.824 190.358 117.304 189.792 117.908C189.224 118.512 188.773 119.229 188.466 120.018C188.158 120.807 188 121.653 188 122.508C188 123.362 188.158 124.208 188.466 124.997C188.773 125.787 189.224 126.504 189.792 127.107L214.184 153.092C214.751 153.696 215.424 154.176 216.164 154.504C216.905 154.831 217.699 155 218.502 155C219.304 155 220.098 154.831 220.839 154.504C221.58 154.176 222.253 153.696 222.819 153.092L247.212 127.107C247.779 126.503 248.228 125.786 248.535 124.997C248.842 124.208 249 123.362 249 122.508C249 121.654 248.842 120.808 248.535 120.019C248.228 119.229 247.779 118.512 247.212 117.908C246.645 117.304 245.972 116.825 245.231 116.499C244.49 116.172 243.696 116.003 242.894 116.003C242.092 116.003 241.298 116.172 240.558 116.499C239.817 116.825 239.144 117.304 238.577 117.908L225 132.38V86H244.5C246.224 86 247.877 85.3679 249.096 84.2426C250.315 83.1174 251 81.5913 251 80C251 78.4087 250.315 76.8826 249.096 75.7574C247.877 74.6321 246.224 74 244.5 74H192.5C190.776 74 189.123 74.6321 187.904 75.7574C186.685 76.8826 186 78.4087 186 80Z" fill="url(#paint5_linear_4_258)"/>
<path fill-rule="evenodd" clip-rule="evenodd" d="M10.9835 9.76311C18.0161 3.51189 27.5544 0 37.5 0H262.5C272.446 0 281.984 3.51189 289.017 9.76311C296.049 16.0143 300 24.4928 300 33.3333V166.667C300 175.507 296.049 183.986 289.017 190.237C281.984 196.488 272.446 200 262.5 200H37.5C27.5544 200 18.0161 196.488 10.9835 190.237C3.95088 183.986 0 175.507 0 166.667V33.3333C0 24.4928 3.95088 16.0143 10.9835 9.76311ZM275.758 21.5482C272.242 18.4226 267.473 16.6667 262.5 16.6667H37.5C32.5272 16.6667 27.7581 18.4226 24.2417 21.5482C20.7254 24.6738 18.75 28.9131 18.75 33.3333V166.667C18.75 171.087 20.7254 175.326 24.2417 178.452C27.7581 181.577 32.5272 183.333 37.5 183.333H262.5C267.473 183.333 272.242 181.577 275.758 178.452C279.275 175.326 281.25 171.087 281.25 166.667V33.3333C281.25 28.9131 279.275 24.6738 275.758 21.5482Z" fill="url(#paint6_linear_4_258)"/>
<defs>
<linearGradient id="paint0_linear_4_258" x1="253.182" y1="173.655" x2="250.827" y2="146.738" gradientUnits="userSpaceOnUse">
<stop stop-color="#F74C00"/>
<stop offset="0.33" stop-color="#F74C00"/>
<stop offset="1" stop-color="#F49600"/>
</linearGradient>
<linearGradient id="paint1_linear_4_258" x1="259.883" y1="172.508" x2="259.883" y2="162.946" gradientUnits="userSpaceOnUse">
<stop stop-color="#CC3A00"/>
<stop offset="0.15" stop-color="#CC3A00"/>
<stop offset="0.74" stop-color="#F74C00"/>
<stop offset="1" stop-color="#F74C00"/>
</linearGradient>
<linearGradient id="paint2_linear_4_258" x1="245.308" y1="172.907" x2="245.308" y2="164.354" gradientUnits="userSpaceOnUse">
<stop stop-color="#CC3A00"/>
<stop offset="0.15" stop-color="#CC3A00"/>
<stop offset="0.74" stop-color="#F74C00"/>
<stop offset="1" stop-color="#F74C00"/>
</linearGradient>
<linearGradient id="paint3_linear_4_258" x1="18.5" y1="19.5" x2="282.5" y2="179.5" gradientUnits="userSpaceOnUse">
<stop stop-color="#F74C00"/>
<stop offset="1" stop-color="#FFD43B"/>
</linearGradient>
<linearGradient id="paint4_linear_4_258" x1="18.5" y1="19.5" x2="282.5" y2="179.5" gradientUnits="userSpaceOnUse">
<stop stop-color="#F74C00"/>
<stop offset="1" stop-color="#FFD43B"/>
</linearGradient>
<linearGradient id="paint5_linear_4_258" x1="18.5" y1="19.5" x2="282.5" y2="179.5" gradientUnits="userSpaceOnUse">
<stop stop-color="#F74C00"/>
<stop offset="1" stop-color="#FFD43B"/>
</linearGradient>
<linearGradient id="paint6_linear_4_258" x1="18.5" y1="19.5" x2="282.5" y2="179.5" gradientUnits="userSpaceOnUse">
<stop stop-color="#F74C00"/>
<stop offset="1" stop-color="#FFD43B"/>
</linearGradient>
</defs>
</svg>
